<svg width="19" height="17" viewBox="0 0 19 17" fill="none" xmlns="http://www.w3.org/2000/svg">
<path d="M17.9998 6.34953C18.0173 7.3906 17.5381 8.466 16.8469 9.46435C15.9068 10.8228 14.718 11.9426 13.4491 12.982C12.3754 13.8564 11.2481 14.6623 10.0738 15.395C9.93936 15.4787 9.83751 15.4938 9.69559 15.4042C7.80215 14.2082 6.00807 12.8849 4.43188 11.2826C3.50937 10.3454 2.65699 9.34542 2.15943 8.10921C1.45231 6.35037 1.60759 4.65184 2.74382 3.1183C4.07957 1.31591 6.48644 1.02445 8.30139 2.38713C8.88633 2.8287 9.38095 3.37923 9.7582 4.00861C9.86673 4.187 9.88343 4.18616 9.9953 4.00861C10.6047 3.02366 11.3945 2.2414 12.4881 1.81425C13.2901 1.49454 14.1759 1.45433 15.0034 1.70006C15.8309 1.9458 16.5521 2.46324 17.0514 3.16939C17.6968 4.05718 18.0023 5.04967 17.9998 6.34953Z" stroke="#5D6E82" stroke-width="1.5" stroke-miterlimit="10"/>
</svg>
