<svg width="25" height="18" viewBox="0 0 25 18" fill="none" xmlns="http://www.w3.org/2000/svg">
<rect x="0.5" y="0.5" width="24" height="17" rx="2.5" stroke="#344050"/>
<path d="M0.5 6H24.5" stroke="#344050"/>
<path d="M6.00006 14.8481L6.37495 14.5173C6.28004 14.4097 6.1435 14.3481 6.00006 14.3481C5.85662 14.3481 5.72008 14.4097 5.62517 14.5173L6.00006 14.8481ZM6.00006 12.5804L5.62517 12.9113C5.72008 13.0188 5.85662 13.0804 6.00006 13.0804C6.14351 13.0804 6.28004 13.0188 6.37495 12.9113L6.00006 12.5804ZM5.62517 14.5173C5.40194 14.7702 5.07691 14.9286 4.71428 14.9286V15.9286C5.37575 15.9286 5.96995 15.6379 6.37495 15.179L5.62517 14.5173ZM4.71428 14.9286C4.04365 14.9286 3.5 14.3849 3.5 13.7143H2.5C2.5 14.9372 3.49137 15.9286 4.71428 15.9286V14.9286ZM3.5 13.7143C3.5 13.0437 4.04365 12.5 4.71428 12.5V11.5C3.49137 11.5 2.5 12.4914 2.5 13.7143H3.5ZM4.71428 12.5C5.07691 12.5 5.40194 12.6583 5.62517 12.9113L6.37495 12.2496C5.96995 11.7907 5.37575 11.5 4.71428 11.5V12.5ZM6.37495 12.9113C6.59819 12.6583 6.92322 12.5 7.28585 12.5V11.5C6.62438 11.5 6.03018 11.7907 5.62517 12.2496L6.37495 12.9113ZM7.28585 12.5C7.95647 12.5 8.50012 13.0437 8.50012 13.7143H9.50012C9.50012 12.4914 8.50876 11.5 7.28585 11.5V12.5ZM8.50012 13.7143C8.50012 14.3849 7.95647 14.9286 7.28585 14.9286V15.9286C8.50876 15.9286 9.50012 14.9372 9.50012 13.7143H8.50012ZM7.28585 14.9286C6.92321 14.9286 6.59819 14.7702 6.37495 14.5173L5.62517 15.179C6.03018 15.6379 6.62438 15.9286 7.28585 15.9286V14.9286Z" fill="#344050"/>
</svg>
