<svg width="26" height="26" viewBox="0 0 26 26" fill="none" xmlns="http://www.w3.org/2000/svg">
<circle cx="13" cy="13" r="12" fill="white" stroke="#B6C2D2"/>
<path d="M13.045 17.5789C13.7755 18.7797 14.9426 18.7545 15.2533 18.7545H19.0066L14.5788 13.3806C12.5356 13.4646 11.4552 14.7745 11.6763 15.323L13.045 17.5789Z" fill="url(#paint0_linear)"/>
<path d="M11.676 15.3259C11.6704 15.3175 11.5557 15.046 11.5557 14.7185C11.5557 13.4926 12.6444 12.7873 13.8787 12.5354L14.5785 13.3835C12.5353 13.4646 11.4549 14.7745 11.676 15.3259Z" fill="url(#paint1_linear)"/>
<path d="M13.3833 11.3347C11.5164 11.3347 10.1226 11.6426 10.1226 12.3731C10.1226 12.6418 10.2065 12.8741 10.436 13.2855L11.6759 15.3231C11.6703 15.3147 11.5556 15.0432 11.5556 14.7158C11.5556 13.4899 12.6444 12.7845 13.8787 12.5326C14.2369 12.4599 14.6064 12.4235 14.9646 12.4235C15.2669 12.4235 15.5524 12.4403 15.7707 12.5186C15.642 12.0484 15.3005 11.3347 13.3833 11.3347Z" fill="url(#paint2_linear)"/>
<path d="M8.47421 10.064C8.98641 10.9064 9.17673 11.1164 10.3998 11.1164C11.2955 11.1164 12.7341 11.1164 12.7341 11.1164L9.5154 7.05238C8.80448 6.17353 8.39585 6.01399 7.74371 6H6L8.47421 10.064Z" fill="url(#paint3_linear)"/>
<path d="M20.0002 18.4718C20.0002 18.6313 19.8742 18.7573 19.7147 18.7573C19.5552 18.7573 19.4292 18.6313 19.4292 18.4718C19.4292 18.3151 19.5552 18.1863 19.7147 18.1863C19.8742 18.1835 20.0002 18.3123 20.0002 18.4718ZM19.4852 18.4718C19.4852 18.5978 19.5887 18.7013 19.7147 18.7013C19.8406 18.7013 19.9442 18.5978 19.9442 18.4718C19.9442 18.3459 19.8406 18.2423 19.7147 18.2423C19.5859 18.2395 19.4852 18.3431 19.4852 18.4718ZM19.7063 18.4886H19.6811V18.6062H19.6307V18.3207C19.6307 18.3207 19.6727 18.3207 19.7147 18.3207C19.7791 18.3207 19.8154 18.3543 19.8154 18.4046C19.8154 18.4634 19.7679 18.4774 19.7595 18.4802L19.8294 18.6062H19.7707L19.7063 18.4886ZM19.7007 18.455C19.7427 18.455 19.7651 18.4354 19.7651 18.4074C19.7651 18.3794 19.7427 18.3599 19.7007 18.3599C19.6867 18.3599 19.6811 18.3627 19.6811 18.3627V18.455C19.6811 18.4522 19.6923 18.455 19.7007 18.455Z" fill="#36495A"/>
<defs>
<linearGradient id="paint0_linear" x1="15.3262" y1="13.2399" x2="15.3262" y2="21.5217" gradientUnits="userSpaceOnUse">
<stop stop-color="#ED1C24"/>
<stop offset="0.1263" stop-color="#E81B23"/>
<stop offset="0.2703" stop-color="#DB1A21"/>
<stop offset="0.4229" stop-color="#C4171D"/>
<stop offset="0.5816" stop-color="#A41317"/>
<stop offset="0.7436" stop-color="#7B0E10"/>
<stop offset="0.7546" stop-color="#780E0F"/>
</linearGradient>
<linearGradient id="paint1_linear" x1="11.5549" y1="13.9291" x2="14.5774" y2="13.9291" gradientUnits="userSpaceOnUse">
<stop stop-color="#69231D"/>
<stop offset="0.2647" stop-color="#8D2922"/>
<stop offset="0.5812" stop-color="#B22F26"/>
<stop offset="0.8377" stop-color="#C93329"/>
<stop offset="1" stop-color="#D1342A"/>
</linearGradient>
<linearGradient id="paint2_linear" x1="11.2227" y1="13.4874" x2="14.5907" y2="11.4637" gradientUnits="userSpaceOnUse">
<stop offset="0.1" stop-color="#E7EBEE"/>
<stop offset="0.3511" stop-color="#D5DCE0"/>
<stop offset="0.8549" stop-color="#A5B4BB"/>
<stop offset="1" stop-color="#96A7B0"/>
</linearGradient>
<linearGradient id="paint3_linear" x1="9.36638" y1="11.7832" x2="9.36638" y2="6.0616" gradientUnits="userSpaceOnUse">
<stop stop-color="#1C2F72"/>
<stop offset="0.1275" stop-color="#174687"/>
<stop offset="0.4038" stop-color="#0D72AF"/>
<stop offset="0.6512" stop-color="#0692CC"/>
<stop offset="0.8584" stop-color="#02A6DE"/>
<stop offset="1" stop-color="#00ADE4"/>
</linearGradient>
</defs>
</svg>
