<svg width="67" height="68" viewBox="0 0 67 68" fill="none" xmlns="http://www.w3.org/2000/svg">
<g filter="url(#filter0_dd)">
<rect x="14" y="7" width="39" height="40" rx="19.5" fill="white"/>
<path d="M30.3516 32V24.4082H27.9902V32H30.3516ZM29.1582 23.3926C29.9199 23.3926 30.5293 22.7578 30.5293 21.9961C30.5293 21.2598 29.9199 20.6504 29.1582 20.6504C28.4219 20.6504 27.8125 21.2598 27.8125 21.9961C27.8125 22.7578 28.4219 23.3926 29.1582 23.3926ZM39.1621 32H39.1875V27.8359C39.1875 25.8047 38.7305 24.2305 36.3438 24.2305C35.2012 24.2305 34.4395 24.8652 34.1094 25.4492H34.084V24.4082H31.8242V32H34.1855V28.2422C34.1855 27.252 34.3633 26.3125 35.582 26.3125C36.8008 26.3125 36.8262 27.4297 36.8262 28.3184V32H39.1621Z" fill="#2A7BE4"/>
</g>
<defs>
<filter id="filter0_dd" x="0" y="0" width="67" height="68" filterUnits="userSpaceOnUse" color-interpolation-filters="sRGB">
<feFlood flood-opacity="0" result="BackgroundImageFix"/>
<feColorMatrix in="SourceAlpha" type="matrix" values="0 0 0 0 0 0 0 0 0 0 0 0 0 0 0 0 0 0 127 0" result="hardAlpha"/>
<feOffset dy="3"/>
<feGaussianBlur stdDeviation="3"/>
<feColorMatrix type="matrix" values="0 0 0 0 0 0 0 0 0 0 0 0 0 0 0 0 0 0 0.07 0"/>
<feBlend mode="normal" in2="BackgroundImageFix" result="effect1_dropShadow"/>
<feColorMatrix in="SourceAlpha" type="matrix" values="0 0 0 0 0 0 0 0 0 0 0 0 0 0 0 0 0 0 127 0" result="hardAlpha"/>
<feOffset dy="7"/>
<feGaussianBlur stdDeviation="7"/>
<feColorMatrix type="matrix" values="0 0 0 0 0.254902 0 0 0 0 0.270588 0 0 0 0 0.345098 0 0 0 0.1 0"/>
<feBlend mode="normal" in2="effect1_dropShadow" result="effect2_dropShadow"/>
<feBlend mode="normal" in="SourceGraphic" in2="effect2_dropShadow" result="shape"/>
</filter>
</defs>
</svg>
