<svg width="11" height="10" viewBox="0 0 11 10" fill="none" xmlns="http://www.w3.org/2000/svg">
<path d="M9.625 3.84375H6.53125V0.75C6.53125 0.384766 6.20898 0.0625 5.84375 0.0625H5.15625C4.76953 0.0625 4.46875 0.384766 4.46875 0.75V3.84375H1.375C0.988281 3.84375 0.6875 4.16602 0.6875 4.53125V5.21875C0.6875 5.60547 0.988281 5.90625 1.375 5.90625H4.46875V9C4.46875 9.38672 4.76953 9.6875 5.15625 9.6875H5.84375C6.20898 9.6875 6.53125 9.38672 6.53125 9V5.90625H9.625C9.99023 5.90625 10.3125 5.60547 10.3125 5.21875V4.53125C10.3125 4.16602 9.99023 3.84375 9.625 3.84375Z" fill="#748194"/>
</svg>
