<svg width="20" height="14" viewBox="0 0 20 14" fill="none" xmlns="http://www.w3.org/2000/svg">
<path fill-rule="evenodd" clip-rule="evenodd" d="M8 4.36572C8 4.08958 8.22386 3.86572 8.5 3.86572H17.5C17.7761 3.86572 18 4.08958 18 4.36572V5.36572C18 5.64187 17.7761 5.86572 17.5 5.86572H8.5C8.22386 5.86572 8 5.64187 8 5.36572V4.36572Z" fill="#5D6E82"/>
<path d="M19.5376 5.04346C19.731 4.8501 19.731 4.52783 19.5376 4.33447L15.3696 0.145019C15.1548 -0.0483399 14.8325 -0.0483399 14.6392 0.14502L14.145 0.63916C13.9517 0.83252 13.9517 1.15479 14.145 1.36963L17.4536 4.67822L14.145 8.0083C13.9517 8.22314 13.9517 8.54541 14.145 8.73877L14.6392 9.23291C14.8325 9.42627 15.1548 9.42627 15.3696 9.23291L19.5376 5.04346Z" fill="#5D6E82"/>
<path fill-rule="evenodd" clip-rule="evenodd" d="M11.6826 9.01221C11.6826 9.28835 11.4588 9.51221 11.1826 9.51221L2.18262 9.51221C1.90648 9.51221 1.68262 9.28835 1.68262 9.01221L1.68262 8.01221C1.68262 7.73607 1.90647 7.51221 2.18262 7.51221L11.1826 7.51221C11.4588 7.51221 11.6826 7.73606 11.6826 8.01221L11.6826 9.01221Z" fill="#5D6E82"/>
<path d="M0.14502 8.33447C-0.0483392 8.52783 -0.0483392 8.8501 0.14502 9.04346L4.31299 13.2329C4.52783 13.4263 4.8501 13.4263 5.04346 13.2329L5.5376 12.7388C5.73096 12.5454 5.73096 12.2231 5.5376 12.0083L2.229 8.69971L5.5376 5.36963C5.73096 5.15479 5.73096 4.83252 5.5376 4.63916L5.04346 4.14502C4.8501 3.95166 4.52783 3.95166 4.31299 4.14502L0.14502 8.33447Z" fill="#5D6E82"/>
</svg>
