<svg width="67" height="68" viewBox="0 0 67 68" fill="none" xmlns="http://www.w3.org/2000/svg">
<g filter="url(#filter0_dd)">
<rect x="14" y="7" width="39" height="40" rx="19.5" fill="white"/>
<path d="M38.6543 24.4844C39.1621 24.1035 39.6191 23.6465 39.9746 23.1133C39.5176 23.3164 38.9844 23.4688 38.4512 23.5195C39.0098 23.1895 39.416 22.6816 39.6191 22.0469C39.1113 22.3516 38.5273 22.5801 37.9434 22.707C37.4355 22.1738 36.75 21.8691 35.9883 21.8691C34.5156 21.8691 33.3223 23.0625 33.3223 24.5352C33.3223 24.7383 33.3477 24.9414 33.3984 25.1445C31.1895 25.0176 29.209 23.9512 27.8887 22.3516C27.6602 22.7324 27.5332 23.1895 27.5332 23.6973C27.5332 24.6113 27.9902 25.4238 28.7266 25.9062C28.2949 25.8809 27.8633 25.7793 27.5078 25.5762V25.6016C27.5078 26.8965 28.4219 27.9629 29.6406 28.2168C29.4375 28.2676 29.1836 28.3184 28.9551 28.3184C28.7773 28.3184 28.625 28.293 28.4473 28.2676C28.7773 29.334 29.7676 30.0957 30.9355 30.1211C30.0215 30.832 28.8789 31.2637 27.6348 31.2637C27.4062 31.2637 27.2031 31.2383 27 31.2129C28.168 31.9746 29.5645 32.4062 31.0879 32.4062C35.9883 32.4062 38.6543 28.3691 38.6543 24.8398C38.6543 24.7129 38.6543 24.6113 38.6543 24.4844Z" fill="#27BCFE"/>
</g>
<defs>
<filter id="filter0_dd" x="0" y="0" width="67" height="68" filterUnits="userSpaceOnUse" color-interpolation-filters="sRGB">
<feFlood flood-opacity="0" result="BackgroundImageFix"/>
<feColorMatrix in="SourceAlpha" type="matrix" values="0 0 0 0 0 0 0 0 0 0 0 0 0 0 0 0 0 0 127 0" result="hardAlpha"/>
<feOffset dy="3"/>
<feGaussianBlur stdDeviation="3"/>
<feColorMatrix type="matrix" values="0 0 0 0 0 0 0 0 0 0 0 0 0 0 0 0 0 0 0.07 0"/>
<feBlend mode="normal" in2="BackgroundImageFix" result="effect1_dropShadow"/>
<feColorMatrix in="SourceAlpha" type="matrix" values="0 0 0 0 0 0 0 0 0 0 0 0 0 0 0 0 0 0 127 0" result="hardAlpha"/>
<feOffset dy="7"/>
<feGaussianBlur stdDeviation="7"/>
<feColorMatrix type="matrix" values="0 0 0 0 0.254902 0 0 0 0 0.270588 0 0 0 0 0.345098 0 0 0 0.1 0"/>
<feBlend mode="normal" in2="effect1_dropShadow" result="effect2_dropShadow"/>
<feBlend mode="normal" in="SourceGraphic" in2="effect2_dropShadow" result="shape"/>
</filter>
</defs>
</svg>
